<svg xmlns="http://www.w3.org/2000/svg" width="191" height="52" viewBox="0 0 191 52" fill="none"><g clip-path="url(#clip0_6_130)"><path d="M48.1931 23.1227C48.3455 23.533 48.3781 23.9779 48.2872 24.4051C48.1962 24.8323 47.9855 25.2239 47.6798 25.5337C47.374 25.8435 46.9862 26.0586 46.5619 26.1535C46.1376 26.2484 45.6946 26.2192 45.2853 26.0694C44.8759 25.9195 44.5172 25.6553 44.2515 25.3079C43.9859 24.9604 43.8243 24.5443 43.7859 24.1085C43.7475 23.6728 43.8339 23.2357 44.0349 22.8488C44.2359 22.4618 44.5431 22.1412 44.9202 21.9248C45.0175 21.8673 45.1192 21.8175 45.2242 21.7759C44.7091 21.1926 43.4136 18.3999 41.382 12.9225C41.1869 12.3964 40.9827 11.8458 40.7677 11.2662C39.2927 12.6172 37.8093 13.9631 36.3352 15.3122C36.9295 17.0334 37.5216 18.7488 38.1 20.4709C24.8225 19.3257 21.8905 23.0009 21.8905 23.0009C28.6276 19.7262 38.5646 21.8161 38.83 22.2322C41.1321 25.8764 38.3299 24.4859 38.3299 24.4859C25.0974 18.7503 12.8432 33.9388 12.8432 33.9388L11.3692 30.8144L11.3627 30.7971C10.4328 29.0869 10.4549 26.9185 8.95536 25.4821C6.50183 25.4056 4.05404 25.3271 1.59923 25.2692C1.03318 25.2622 0.455862 25.3612 0.1546 24.6855C-0.179915 23.9333 0.469182 23.6843 0.85869 23.3475L9.69128 15.6129C12.2929 13.3426 14.8923 11.0704 17.4893 8.79632C17.9802 8.34318 18.6263 8.09764 19.2942 8.11042C27.2577 8.18182 35.2176 8.26114 43.7372 8.33504C42.8634 9.19344 42.3262 9.72644 41.7935 10.2495C44.3098 16.6552 45.5087 20.7727 45.4774 21.6968C45.4792 21.7043 45.4793 21.7121 45.4778 21.7197L45.6357 21.6611C45.7086 21.6465 45.7824 21.6367 45.8567 21.6317C46.3537 21.5899 46.8513 21.713 47.2733 21.9823C47.6954 22.2516 48.0184 22.6522 48.1931 23.1227Z" fill="url(#paint0_linear_6_130)"></path><path d="M55.7777 49C54.2635 49 52.9149 48.693 51.7319 48.0791C50.5725 47.4652 49.6616 46.6126 48.9992 45.5211C48.3367 44.4297 48.0054 43.1678 48.0054 41.7353V32.1855H52.6901V41.633C52.6901 42.3151 52.8084 42.9063 53.045 43.4065C53.2816 43.884 53.6365 44.2478 54.1097 44.498C54.5829 44.7481 55.1389 44.8731 55.7777 44.8731C56.7477 44.8731 57.5049 44.5889 58.049 44.0205C58.5932 43.452 58.8653 42.6562 58.8653 41.633V32.1855H63.5145V41.7353C63.5145 43.1905 63.1832 44.4638 62.5207 45.5553C61.8819 46.6467 60.971 47.4993 59.788 48.1132C58.6287 48.7044 57.2919 49 55.7777 49Z" fill="#241442"></path><path d="M67.5716 48.6589V32.1855H72.2563V48.6589H67.5716ZM69.914 29.5252C69.1569 29.5252 68.5299 29.2865 68.033 28.809C67.5362 28.3088 67.2877 27.6949 67.2877 26.9673C67.2877 26.2624 67.5362 25.6598 68.033 25.1596C68.5299 24.6594 69.1569 24.4093 69.914 24.4093C70.6947 24.4093 71.3217 24.6594 71.7949 25.1596C72.2918 25.6598 72.5402 26.2624 72.5402 26.9673C72.5402 27.6949 72.2918 28.3088 71.7949 28.809C71.3217 29.2865 70.6947 29.5252 69.914 29.5252Z" fill="#241442"></path><path d="M87.6605 48.6589L81.0239 40.1664L87.625 32.1855H92.9839L85.2472 41.1896L85.4246 39.0068L93.3388 48.6589H87.6605ZM76.7297 48.6589V24H81.3788V48.6589H76.7297Z" fill="#241442"></path><path d="M95.8345 48.6589V24H100.484V48.6589H95.8345Z" fill="#241442"></path><path d="M113.156 49C111.358 49 109.761 48.6362 108.365 47.9086C106.969 47.1583 105.857 46.1351 105.029 44.839C104.224 43.543 103.822 42.065 103.822 40.4052C103.822 38.7681 104.213 37.3129 104.993 36.0396C105.798 34.7435 106.886 33.7203 108.258 32.97C109.631 32.1969 111.157 31.8104 112.837 31.8104C114.493 31.8104 115.948 32.1742 117.202 32.9018C118.479 33.6066 119.473 34.5844 120.183 35.8349C120.916 37.0628 121.283 38.4611 121.283 40.03C121.283 40.3256 121.259 40.6326 121.212 40.9509C121.188 41.2465 121.129 41.5875 121.035 41.9741L106.626 42.0082V38.6658L118.87 38.6317L116.989 40.03C116.942 39.0523 116.752 38.2337 116.421 37.5744C116.113 36.915 115.652 36.4147 115.037 36.0737C114.445 35.7099 113.712 35.528 112.837 35.528C111.914 35.528 111.109 35.7326 110.423 36.1419C109.737 36.5284 109.205 37.0855 108.826 37.8131C108.471 38.518 108.294 39.3593 108.294 40.337C108.294 41.3374 108.483 42.2128 108.862 42.9632C109.264 43.6908 109.832 44.2592 110.565 44.6685C111.299 45.055 112.15 45.2483 113.12 45.2483C113.996 45.2483 114.788 45.1119 115.498 44.839C116.208 44.5434 116.823 44.1114 117.344 43.543L120.076 46.1692C119.248 47.1014 118.231 47.8063 117.024 48.2838C115.841 48.7613 114.552 49 113.156 49Z" fill="#241442"></path><path d="M131.682 49C130.121 49 128.713 48.6248 127.459 47.8745C126.205 47.1241 125.223 46.101 124.513 44.8049C123.803 43.5089 123.449 42.0537 123.449 40.4393C123.449 38.8022 123.803 37.3356 124.513 36.0396C125.223 34.7435 126.205 33.7203 127.459 32.97C128.713 32.2196 130.121 31.8445 131.682 31.8445C132.912 31.8445 134.013 32.0832 134.983 32.5607C135.953 33.0382 136.722 33.709 137.29 34.573C137.881 35.4143 138.2 36.3693 138.248 37.4379V43.3724C138.2 44.4638 137.881 45.4302 137.29 46.2715C136.722 47.1128 135.953 47.7835 134.983 48.2838C134.013 48.7613 132.912 49 131.682 49ZM132.534 44.8731C133.835 44.8731 134.888 44.4638 135.692 43.6453C136.497 42.804 136.899 41.724 136.899 40.4052C136.899 39.5412 136.71 38.7794 136.331 38.1201C135.976 37.4379 135.468 36.915 134.805 36.5512C134.166 36.1646 133.409 35.9714 132.534 35.9714C131.682 35.9714 130.925 36.1646 130.263 36.5512C129.624 36.915 129.115 37.4379 128.736 38.1201C128.382 38.7794 128.204 39.5412 128.204 40.4052C128.204 41.292 128.382 42.0764 128.736 42.7585C129.115 43.4179 129.624 43.9409 130.263 44.3274C130.925 44.6912 131.682 44.8731 132.534 44.8731ZM136.651 48.6589V44.2251L137.396 40.2005L136.651 36.2442V32.1855H141.264V48.6589H136.651Z" fill="#241442"></path><path d="M145.732 48.6589V32.1855H150.381V48.6589H145.732ZM150.381 39.5525L148.571 38.3929C148.784 36.3693 149.399 34.7776 150.417 33.618C151.434 32.4357 152.901 31.8445 154.818 31.8445C155.646 31.8445 156.391 31.9809 157.053 32.2538C157.716 32.5039 158.319 32.9245 158.863 33.5157L155.953 36.7217C155.693 36.4488 155.374 36.2442 154.995 36.1078C154.64 35.9714 154.226 35.9031 153.753 35.9031C152.759 35.9031 151.943 36.2101 151.304 36.824C150.689 37.4152 150.381 38.3247 150.381 39.5525Z" fill="#241442"></path><path d="M172.351 48.6589V39.2115C172.351 38.2337 172.031 37.4379 171.393 36.824C170.754 36.2101 169.926 35.9031 168.908 35.9031C168.246 35.9031 167.654 36.0396 167.134 36.3124C166.613 36.5853 166.199 36.9718 165.892 37.472C165.608 37.9723 165.466 38.5521 165.466 39.2115L163.656 38.3247C163.656 37.0287 163.94 35.9031 164.508 34.9482C165.099 33.9704 165.904 33.2087 166.921 32.663C167.962 32.1173 169.133 31.8445 170.434 31.8445C171.688 31.8445 172.812 32.1514 173.806 32.7653C174.8 33.3565 175.58 34.141 176.148 35.1187C176.716 36.0737 177 37.1082 177 38.2224V48.6589H172.351ZM160.817 48.6589V32.1855H165.466V48.6589H160.817Z" fill="#241442"></path><path d="M44.6598 48.6589H39.8572L32.5361 37.4203L37.3368 41.8704C37.793 41.406 38.1779 40.8783 38.4793 40.3042C38.9679 39.3726 39.2221 38.339 39.2208 37.2904C39.2208 33.6569 36.223 30.7021 32.5361 30.7021C28.8492 30.7021 25.851 33.6569 25.851 37.2904C25.851 40.9239 28.8492 43.8782 32.5361 43.8782C33.1273 43.8785 33.7158 43.8013 34.2864 43.6486L36.9798 47.7814C35.5726 48.3625 34.0618 48.6609 32.5361 48.6589C26.1759 48.6589 21 43.5589 21 37.2904C21 31.0218 26.1759 25.9213 32.5361 25.9213C38.8963 25.9213 44.0718 31.0223 44.0718 37.2904C44.0739 39.5586 43.3843 41.7752 42.0924 43.6524C41.7276 44.1822 41.3188 44.6812 40.8703 45.1444L44.6598 48.6589Z" fill="#241442"></path></g><defs><linearGradient id="paint0_linear_6_130" x1="18.8229" y1="8.09404" x2="28.0727" y2="33.033" gradientUnits="userSpaceOnUse"><stop stop-color="#543EE8"></stop><stop offset="1" stop-color="#7C63FF"></stop></linearGradient><clipPath id="clip0_6_130"><rect width="191" height="52" fill="white"></rect></clipPath></defs></svg>